<?xml version="1.0" encoding="UTF-8" standalone="no"?>
<svg
   xmlns:dc="http://purl.org/dc/elements/1.1/"
   xmlns:cc="http://creativecommons.org/ns#"
   xmlns:rdf="http://www.w3.org/1999/02/22-rdf-syntax-ns#"
   xmlns:svg="http://www.w3.org/2000/svg"
   xmlns="http://www.w3.org/2000/svg"
   xmlns:sodipodi="http://sodipodi.sourceforge.net/DTD/sodipodi-0.dtd"
   xmlns:inkscape="http://www.inkscape.org/namespaces/inkscape"
   id="Layer_1"
   data-name="Layer 1"
   viewBox="0 0 467.07002 330.47634"
   version="1.1"
   sodipodi:docname="aa_logo.svg"
   width="467.07001"
   height="330.47635"
   inkscape:version="1.0.2-2 (e86c870879, 2021-01-15)">
  <metadata
     id="metadata941">
    <rdf:RDF>
      <cc:Work
         rdf:about="">
        <dc:format>image/svg+xml</dc:format>
        <dc:type
           rdf:resource="http://purl.org/dc/dcmitype/StillImage" />
        <dc:title></dc:title>
      </cc:Work>
    </rdf:RDF>
  </metadata>
  <sodipodi:namedview
     pagecolor="#ffffff"
     bordercolor="#999999"
     borderopacity="1"
     objecttolerance="10"
     gridtolerance="10"
     guidetolerance="10"
     inkscape:pageopacity="0"
     inkscape:pageshadow="2"
     inkscape:window-width="1920"
     inkscape:window-height="1051"
     id="namedview939"
     showgrid="false"
     fit-margin-top="0"
     fit-margin-left="0"
     fit-margin-right="0"
     fit-margin-bottom="0"
     inkscape:zoom="0.70607844"
     inkscape:cx="588.33176"
     inkscape:cy="166.17999"
     inkscape:window-x="-9"
     inkscape:window-y="-9"
     inkscape:window-maximized="1"
     inkscape:current-layer="Layer_1"
     inkscape:document-rotation="0" />
  <defs
     id="defs890">
    <style
       id="style888">.cls-1{fill:#fff;}.cls-2{fill:#00053b;}.cls-3{fill:#0077a7;}</style>
  </defs>
  <g
     id="g950"
     transform="rotate(180,233.535,165.23818)">
    <path
       class="cls-1"
       d="m 422.22,233.58 c 0,0 -68.84,-87.38 -217.8,0 C 65.09,315.24 0,231.65 0,231.65 l 44.86,49.45 c 0,0 65.53,99.41 229.32,0.66 117.24,-70.69 192.89,1.23 192.89,1.23 z"
       id="path892" />
    <path
       class="cls-2"
       d="m 0.45,231.58 c 0,0 67.68,83.51 218.77,-7.74 125.19,-75.6 203,9.22 203,9.22 l -156,-171.8 H 251.48 L 201.69,0 126.22,100.76 h -16.21 z"
       id="path894" />
    <polygon
       class="cls-1"
       points="131.48,125.5 176.97,146.95 203.06,105.76 203.06,14.79 132.74,108.78 115.38,108.78 75.19,157.28 "
       id="polygon896"
       transform="translate(-1.31,-1.42)" />
    <polygon
       class="cls-1"
       points="226.96,69.05 297.04,105.69 263.85,69.05 "
       id="polygon898"
       transform="translate(-1.31,-1.42)" />
    <path
       class="cls-3"
       d="m 422.22,233.07 c 0,0 -62.39,-94.49 -211.34,-7.13 C 71.53,307.66 0,231.18 0,231.18 c 0,0 68.76,106.66 232.54,7.91 117.24,-70.69 189.68,-6 189.68,-6"
       id="path900" />
    <path
       class="cls-3"
       d="m 445.22,257.79 c 0,0 -62.39,-94.48 -211.35,-7.12 -139.34,81.72 -210.86,5.23 -210.86,5.23 0,0 68.75,106.68 232.53,7.91 117.25,-70.69 189.68,-6 189.68,-6"
       id="path902" />
    <path
       class="cls-3"
       d="m 467.07,282.52 c 0,0 -62.38,-94.47 -211.38,-7.14 -139.34,81.73 -210.87,5.25 -210.87,5.25 0,0 68.79,106.65 232.57,7.95 117.24,-70.69 189.68,-6 189.68,-6"
       id="path904" />
  </g>
</svg>
